<svg width="76" height="82" viewBox="0 0 76 82" fill="none" xmlns="http://www.w3.org/2000/svg">
<path d="M72.5693 57.9365C68.1503 70.7026 53.5698 81.9358 34.5713 81.9358C18.5698 81.9358 8.56981 76.9356 3.07128 65.9356C-2.14777 55.4947 -0.430495 35.4356 6.06951 28.4356C11.2695 22.8356 16.4046 30.6023 18.0713 32.9356C19.2379 26.6023 21.1693 6.13638 31.5693 0.93638C41.9693 -4.26362 47.5713 13.6025 47.5713 19.9358C48.0713 18.9358 53.0693 9.93638 58.5693 13.4364C63.0693 16.3 68.7379 32.6025 65.0713 37.4358C78.0693 25.9365 77.0693 44.9365 72.5693 57.9365Z" fill="#DC6750"/>
<path d="M30 49L28 47" stroke="black" stroke-width="1.5" stroke-linecap="round"/>
<path d="M40 47L42 44" stroke="black" stroke-width="1.5" stroke-linecap="round"/>
<path d="M34 55C34.6282 54.4625 36.1538 53.3337 37.2308 53.1187C38.3077 52.9037 40.1923 53.0291 41 53.1187" stroke="black" stroke-linecap="round"/>
</svg>
