<svg width="96" height="77" viewBox="0 0 96 77" fill="none" xmlns="http://www.w3.org/2000/svg">
<path d="M24.3295 10.5675C33.2019 9.12506 44.7847 17.8367 49.7549 23.453C53.3988 20.629 60.7272 7.33298 81.6721 14.7026C89.2186 17.3579 94.263 25.4592 90.1614 40.44C86.0598 55.4209 76.7723 68.3145 53.1359 69.0689C27.3179 69.893 6.87991 45.7743 6.47317 30.3768C6.2101 20.4178 13.239 12.3705 24.3295 10.5675Z" fill="#F2ACCE"/>
<path d="M43.4495 44.2118C43.4495 44.2118 46.0406 46.1235 47.9874 46.3699C49.7734 46.596 52.5346 45.6126 52.5346 45.6126" stroke="black" stroke-linecap="round"/>
<circle cx="44.4765" cy="39.4762" r="1.25" transform="rotate(11.6204 44.4765 39.4762)" fill="black"/>
<ellipse cx="56.3843" cy="43.655" rx="4.5" ry="4" transform="rotate(11.6204 56.3843 43.655)" fill="url(#paint0_radial_369_5817)" fill-opacity="0.42"/>
<ellipse cx="42.4702" cy="41.8147" rx="4.5" ry="4" transform="rotate(11.6204 42.4702 41.8147)" fill="url(#paint1_radial_369_5817)" fill-opacity="0.42"/>
<path d="M55.2274 38.6178L52.4868 40.2728L55.302 41.3094" stroke="black" stroke-linecap="round" stroke-linejoin="round"/>
<defs>
<radialGradient id="paint0_radial_369_5817" cx="0" cy="0" r="1" gradientUnits="userSpaceOnUse" gradientTransform="translate(56.3843 43.655) rotate(90) scale(4 4.5)">
<stop stop-color="#E66464"/>
<stop offset="1" stop-color="#E66464" stop-opacity="0"/>
</radialGradient>
<radialGradient id="paint1_radial_369_5817" cx="0" cy="0" r="1" gradientUnits="userSpaceOnUse" gradientTransform="translate(42.4702 41.8147) rotate(90) scale(4 4.5)">
<stop stop-color="#E66464"/>
<stop offset="1" stop-color="#E66464" stop-opacity="0"/>
</radialGradient>
</defs>
</svg>
