<svg width="78" height="68" viewBox="0 0 78 68" fill="none" xmlns="http://www.w3.org/2000/svg">
<path d="M3.50024 12.9995C6.30024 5.79951 20.0002 1.66618 26.5002 0.499512C41 0.5 48 1 57.5 8C62.3638 11.5838 75.5 23 77.0002 31.4995C77.8951 36.569 80.4788 43.7745 70.0002 55.9995C61.0002 66.4995 47 60.9995 39 63.4995C25.5269 67.7098 21.0002 69.4995 11.0002 65.4995C1.00024 61.4995 2.23552 45.4139 1.00018 37.9995C-0.499334 28.9995 0.000236988 21.9995 3.50024 12.9995Z" fill="#B3DAC1"/>
<circle cx="31" cy="30" r="1" fill="black"/>
<circle cx="38" cy="29" r="1" fill="black"/>
<path d="M31.2715 35.4656C32.3405 35.4753 33.3921 35.4656 34.4464 35.4656C35.1684 35.4656 35.9964 35.5845 36.6996 35.4087C37.1733 35.2903 37.3816 35.2057 37.8262 35.2551C37.9891 35.2732 38.5654 35.2608 38.5432 35.2608" stroke="black" stroke-linecap="round"/>
</svg>
