<svg width="205" height="173" viewBox="0 0 205 173" fill="none" xmlns="http://www.w3.org/2000/svg">
<path fill-rule="evenodd" clip-rule="evenodd" d="M156.324 133.216H46.0269C20.7413 133.216 0.243164 112.718 0.243164 87.4323C0.243164 62.1466 20.7413 41.6485 46.0269 41.6485C48.0493 41.6485 50.0411 41.7796 51.9942 42.0338C58.2786 17.8675 80.245 0.0268555 106.378 0.0268555C130.88 0.0268555 151.719 15.7092 159.405 37.5838C184.404 39.1717 204.189 59.9509 204.189 85.3512C204.189 111.089 183.875 132.082 158.405 133.172V133.216H156.324Z" fill="url(#paint0_diamond_369_5769)"/>
<path fill-rule="evenodd" clip-rule="evenodd" d="M53.0297 163.138C53.9263 155.517 61.3037 147 61.3037 147C61.3037 147 68.2713 154.173 70.0644 163.138C70.2423 164.028 70.2084 164.816 70.0038 165.506C69.4981 169.728 65.9049 173 61.5473 173C56.8433 173 53.0299 169.187 53.0299 164.483C53.0299 164.378 53.0318 164.274 53.0356 164.171C52.991 163.841 52.9875 163.496 53.0297 163.138Z" fill="url(#paint1_linear_369_5769)"/>
<path fill-rule="evenodd" clip-rule="evenodd" d="M98.0297 163.138C98.9263 155.517 106.304 147 106.304 147C106.304 147 113.271 154.173 115.064 163.138C115.242 164.028 115.208 164.816 115.004 165.506C114.498 169.728 110.905 173 106.547 173C101.843 173 98.0299 169.187 98.0299 164.483C98.0299 164.378 98.0318 164.274 98.0356 164.171C97.991 163.841 97.9875 163.496 98.0297 163.138Z" fill="url(#paint2_linear_369_5769)"/>
<path fill-rule="evenodd" clip-rule="evenodd" d="M143.03 163.138C143.926 155.517 151.304 147 151.304 147C151.304 147 158.271 154.173 160.064 163.138C160.242 164.028 160.208 164.816 160.004 165.506C159.498 169.728 155.905 173 151.547 173C146.843 173 143.03 169.187 143.03 164.483C143.03 164.378 143.032 164.274 143.036 164.171C142.991 163.841 142.988 163.496 143.03 163.138Z" fill="url(#paint3_linear_369_5769)"/>
<defs>
<radialGradient id="paint0_diamond_369_5769" cx="0" cy="0" r="1" gradientUnits="userSpaceOnUse" gradientTransform="translate(100.135 84.3106) rotate(-147.472) scale(241.892 1041.01)">
<stop stop-color="#E4F5FF"/>
<stop offset="1" stop-color="white" stop-opacity="0"/>
<stop offset="1" stop-color="white" stop-opacity="0.87"/>
</radialGradient>
<linearGradient id="paint1_linear_369_5769" x1="61.5899" y1="147" x2="61.5899" y2="173" gradientUnits="userSpaceOnUse">
<stop stop-color="white" stop-opacity="0.87"/>
<stop offset="1" stop-color="#F0F9FF"/>
</linearGradient>
<linearGradient id="paint2_linear_369_5769" x1="106.59" y1="147" x2="106.59" y2="173" gradientUnits="userSpaceOnUse">
<stop stop-color="white" stop-opacity="0.87"/>
<stop offset="1" stop-color="#F0F9FF"/>
</linearGradient>
<linearGradient id="paint3_linear_369_5769" x1="151.59" y1="147" x2="151.59" y2="173" gradientUnits="userSpaceOnUse">
<stop stop-color="white" stop-opacity="0.87"/>
<stop offset="1" stop-color="#F0F9FF"/>
</linearGradient>
</defs>
</svg>
