<svg width="204" height="162" viewBox="0 0 204 162" fill="none" xmlns="http://www.w3.org/2000/svg">
<path fill-rule="evenodd" clip-rule="evenodd" d="M156.081 134.162L45.7838 134.162C20.4981 134.162 0 113.664 0 88.3785C0 63.0929 20.4981 42.5948 45.7838 42.5948C47.8062 42.5948 49.798 42.7259 51.7511 42.9801C58.0355 18.8138 80.0018 0.973145 106.135 0.973145C130.637 0.973145 151.475 16.6555 159.161 38.5301C184.161 40.118 203.946 60.8972 203.946 86.2975C203.946 112.035 183.632 133.028 158.162 134.118V134.162H156.081Z" fill="url(#paint0_diamond_409_5555)"/>
<rect x="31" y="139" width="143" height="11" rx="5.5" fill="url(#paint1_diamond_409_5555)"/>
<rect x="31" y="155" width="143" height="7" rx="3.5" fill="url(#paint2_diamond_409_5555)"/>
<defs>
<radialGradient id="paint0_diamond_409_5555" cx="0" cy="0" r="1" gradientUnits="userSpaceOnUse" gradientTransform="translate(99.8919 85.2569) rotate(-147.472) scale(241.892 1041.01)">
<stop stop-color="#E4F5FF"/>
<stop offset="1" stop-color="white" stop-opacity="0"/>
<stop offset="1" stop-color="white" stop-opacity="0.87"/>
</radialGradient>
<radialGradient id="paint1_diamond_409_5555" cx="0" cy="0" r="1" gradientUnits="userSpaceOnUse" gradientTransform="translate(102.5 144.5) rotate(31.4296) scale(117.195 828.526)">
<stop stop-color="#E4F5FF"/>
<stop offset="1" stop-color="#F5FBFE" stop-opacity="0"/>
</radialGradient>
<radialGradient id="paint2_diamond_409_5555" cx="0" cy="0" r="1" gradientUnits="userSpaceOnUse" gradientTransform="translate(102.5 158.5) rotate(21.2505) scale(107.296 575.887)">
<stop stop-color="#E4F5FF"/>
<stop offset="1" stop-color="#F5FBFE" stop-opacity="0"/>
</radialGradient>
</defs>
</svg>
