<svg width="130" height="180" viewBox="0 0 130 180" fill="none" xmlns="http://www.w3.org/2000/svg">
<path fill-rule="evenodd" clip-rule="evenodd" d="M21.2423 134.054C25.4049 98.6758 59.6531 59.1353 59.6531 59.1353C59.6531 59.1353 91.9991 92.4326 100.323 134.054C101.15 138.186 100.992 141.846 100.041 145.052C97.6922 164.648 81.0116 179.838 60.7832 179.838C38.9456 179.838 21.2427 162.135 21.2427 140.297C21.2427 139.811 21.2515 139.326 21.2689 138.843C21.0625 137.312 21.0469 135.715 21.2423 134.054Z" fill="url(#paint0_linear_369_5759)"/>
<path fill-rule="evenodd" clip-rule="evenodd" d="M0.48392 54.2554C2.06281 40.836 15.0535 25.8379 15.0535 25.8379C15.0535 25.8379 27.3227 38.4679 30.4802 54.2554C30.7935 55.8217 30.7338 57.2093 30.3736 58.4251C29.4834 65.8587 23.156 71.6211 15.4826 71.6211C7.19938 71.6211 0.484481 64.9062 0.484481 56.623C0.484481 56.4393 0.487783 56.2564 0.49433 56.0743C0.415721 55.4929 0.40968 54.8864 0.48392 54.2554Z" fill="url(#paint1_linear_369_5759)"/>
<path fill-rule="evenodd" clip-rule="evenodd" d="M83.7539 43.8727C86.1435 23.5634 105.804 0.864746 105.804 0.864746C105.804 0.864746 124.373 19.9794 129.151 43.8727C129.625 46.2402 129.535 48.3379 128.992 50.1763C127.648 61.4295 118.07 70.1539 106.455 70.1539C93.9186 70.1539 83.7561 59.9913 83.7561 47.4552C83.7561 47.18 83.761 46.9059 83.7707 46.6331C83.6508 45.7509 83.6412 44.8304 83.7539 43.8727Z" fill="url(#paint2_linear_369_5759)"/>
<defs>
<linearGradient id="paint0_linear_369_5759" x1="60.9816" y1="59.1353" x2="60.9816" y2="179.838" gradientUnits="userSpaceOnUse">
<stop stop-color="white" stop-opacity="0.87"/>
<stop offset="1" stop-color="#E4F5FF"/>
</linearGradient>
<linearGradient id="paint1_linear_369_5759" x1="15.5575" y1="25.8379" x2="15.5575" y2="71.6211" gradientUnits="userSpaceOnUse">
<stop stop-color="white" stop-opacity="0.87"/>
<stop offset="1" stop-color="#E4F5FF"/>
</linearGradient>
<linearGradient id="paint2_linear_369_5759" x1="106.567" y1="0.864746" x2="106.567" y2="70.1539" gradientUnits="userSpaceOnUse">
<stop stop-color="white" stop-opacity="0.87"/>
<stop offset="1" stop-color="#E4F5FF"/>
</linearGradient>
</defs>
</svg>
