<svg width="160" height="155" viewBox="0 0 160 155" fill="none" xmlns="http://www.w3.org/2000/svg">
<path fill-rule="evenodd" clip-rule="evenodd" d="M73.9529 6.5948C73.9529 3.14675 76.7481 0.351562 80.1962 0.351562C83.6442 0.351562 86.4394 3.14676 86.4394 6.5948V26.1234L107.798 4.76523C110.236 2.32709 114.189 2.3271 116.627 4.76524C118.58 6.7186 118.969 9.64432 117.792 11.9844C119.318 10.4079 121.63 9.6841 123.899 10.2921C127.23 11.1846 129.206 14.608 128.314 17.9385L120.973 45.3329L136.754 36.2218C139.74 34.4977 143.559 35.5208 145.283 38.5069C147.007 41.493 145.984 45.3113 142.998 47.0354L126.085 56.7997L155.261 64.6173C158.591 65.5097 160.568 68.9331 159.675 72.2636C158.988 74.8299 156.798 76.5922 154.305 76.8577C156.798 77.1232 158.988 78.8855 159.675 81.4518C160.568 84.7824 158.591 88.2057 155.261 89.0982L127.867 96.4384L143.648 105.55C146.634 107.274 147.657 111.092 145.933 114.078C144.209 117.064 140.391 118.087 137.405 116.363L120.492 106.599L128.31 135.775C129.202 139.105 127.226 142.529 123.895 143.421C121.932 143.947 119.936 143.476 118.446 142.319C118.541 144.03 117.934 145.773 116.627 147.08C114.189 149.519 110.236 149.519 107.798 147.08L86.4394 125.722V148.108C86.4394 151.556 83.6442 154.352 80.1962 154.352C76.7481 154.352 73.9529 151.556 73.9529 148.108V127.027L53.8995 147.08C51.4614 149.519 47.5084 149.519 45.0703 147.08C42.6321 144.642 42.6321 140.689 45.0703 138.251L73.9529 109.369V86.8983L55.0281 97.8246C54.9943 98.15 54.9344 98.4771 54.8471 98.8032L44.0746 139.007C43.1822 142.337 39.7588 144.314 36.4282 143.421C33.0976 142.529 31.1211 139.105 32.0136 135.775L39.8314 106.598L20.4433 117.792C17.4572 119.516 13.6389 118.493 11.9149 115.507C10.1909 112.521 11.214 108.703 14.2001 106.979L32.4587 96.4369L5.06251 89.0961C1.73195 88.2037 -0.244543 84.7803 0.647877 81.4498C1.33377 78.89 3.51475 77.13 5.99957 76.8577C3.51475 76.5854 1.33377 74.8255 0.647878 72.2657C-0.244542 68.9351 1.73195 65.5117 5.06251 64.6193L34.24 56.8012L14.8504 45.6067C11.8643 43.8826 10.8412 40.0643 12.5652 37.0782C14.2893 34.0921 18.1076 33.069 21.0937 34.793L39.3547 45.3361L32.0136 17.9385C31.1211 14.608 33.0977 11.1846 36.4282 10.2921C39.7588 9.39973 43.1822 11.3762 44.0746 14.7068L54.6475 54.1653L73.9529 65.3114V42.4772L45.0703 13.5945C42.6321 11.1564 42.6321 7.20338 45.0703 4.76524C47.5084 2.3271 51.4614 2.32709 53.8995 4.76523L73.9529 24.8186V6.5948ZM115.834 137.458L105.476 98.8032C105.389 98.4772 105.329 98.1503 105.295 97.825L86.4394 86.9386V108.174C86.7042 108.366 86.9573 108.582 87.1959 108.82L115.834 137.458ZM92.6478 76.1049L110.888 65.5737C111.187 65.707 111.5 65.8185 111.826 65.9058L152.029 76.6783C152.35 76.7643 152.672 76.8236 152.992 76.8577C152.672 76.8918 152.35 76.9511 152.029 77.0372L112.574 87.6091L92.6478 76.1049ZM116.706 13.5137C116.68 13.5408 116.654 13.5678 116.627 13.5945L87.1959 43.0255C86.9573 43.2641 86.7042 43.4793 86.4394 43.6712V65.2711L105.681 54.1621L116.253 14.7068C116.365 14.2865 116.518 13.8878 116.706 13.5137ZM8.29426 77.0351C7.97955 76.9508 7.66402 76.8921 7.34987 76.8577C7.66402 76.8233 7.97955 76.7646 8.29426 76.6803L48.4977 65.9078C48.8241 65.8204 49.1375 65.7086 49.4365 65.575L67.6748 76.1049L47.7514 87.6076L8.29426 77.0351Z" fill="url(#paint0_radial_366_5604)"/>
<defs>
<radialGradient id="paint0_radial_366_5604" cx="0" cy="0" r="1" gradientUnits="userSpaceOnUse" gradientTransform="translate(80.1616 77.3516) rotate(90) scale(168.568 168.566)">
<stop stop-color="#E4F5FF"/>
<stop offset="1" stop-color="white" stop-opacity="0"/>
</radialGradient>
</defs>
</svg>
