<svg width="204" height="184" viewBox="0 0 204 184" fill="none" xmlns="http://www.w3.org/2000/svg">
<path d="M132.716 88H87.3408L66.7158 131.826H91.4658L81.1533 184L132.716 117.217H110.028L132.716 88Z" fill="url(#paint0_linear_369_5758)"/>
<path fill-rule="evenodd" clip-rule="evenodd" d="M156.081 133.892H45.7838C20.4981 133.892 0 113.394 0 88.108C0 62.8224 20.4981 42.3243 45.7838 42.3243C47.8062 42.3243 49.7979 42.4554 51.7511 42.7096C58.0355 18.5433 80.0018 0.702637 106.135 0.702637C130.637 0.702637 151.475 16.385 159.161 38.2596C184.161 39.8475 203.946 60.6267 203.946 86.027C203.946 111.765 183.632 132.758 158.162 133.847V133.892H156.081Z" fill="url(#paint1_diamond_369_5758)"/>
<defs>
<linearGradient id="paint0_linear_369_5758" x1="99.7158" y1="88" x2="99.7158" y2="184" gradientUnits="userSpaceOnUse">
<stop stop-color="#FAB440"/>
<stop offset="1" stop-color="#F4CB67"/>
</linearGradient>
<radialGradient id="paint1_diamond_369_5758" cx="0" cy="0" r="1" gradientUnits="userSpaceOnUse" gradientTransform="translate(99.8919 84.9864) rotate(-147.472) scale(241.892 1041.01)">
<stop stop-color="#E4F5FF"/>
<stop offset="1" stop-color="white" stop-opacity="0"/>
<stop offset="1" stop-color="white" stop-opacity="0.87"/>
</radialGradient>
</defs>
</svg>
