<svg width="68" height="96" viewBox="0 0 68 96" fill="none" xmlns="http://www.w3.org/2000/svg">
<path d="M17.023 13.5767C18.2374 7.72105 14.5196 1.07348 19.5264 0.0486617C24.5331 -0.976157 43.5588 14.3966 54.5737 26.2849C65.5886 38.1731 70.0947 51.7011 67.0906 66.8689C64.0865 82.0367 53.5723 95.1548 32.0433 95.9747C10.5142 96.7946 0 77.5276 0 59.4902C0 41.4528 12.5169 35.3037 17.023 13.5767Z" fill="#8AB2E5"/>
<path d="M29 59.5596C29 59.5596 30.1118 58.4649 31 58.0596C32.0805 57.5664 32.5 57.5596 34 57.5596C35.5 57.5596 36.1332 57.8643 37.5 58.0596" stroke="black" stroke-linecap="round"/>
<path d="M26.0618 52C26.1063 53.4576 26.2859 55.1049 26.0928 56.5728C26.0214 57.1152 26 57.6679 26 58.215C26 59.5876 26.0618 60.9505 26.0618 62.3275" stroke="white" stroke-width="0.7" stroke-linecap="round"/>
<path d="M34.5075 52C34.2994 55.787 33.8978 59.5869 34.0241 63.377C34.0645 64.5898 34.2746 65.7997 34.3342 67.0119C34.4013 68.376 34.5369 69.6545 35 71" stroke="white" stroke-width="0.7" stroke-linecap="round"/>
<circle cx="26.5" cy="52.0596" r="1" fill="black"/>
<circle cx="34.5" cy="51.0596" r="1" fill="black"/>
</svg>
