<svg width="150" height="150" viewBox="0 0 150 150" fill="none" xmlns="http://www.w3.org/2000/svg">
<circle cx="75" cy="75" r="75" fill="white"/>
<ellipse cx="72.5844" cy="73.2415" rx="21.8315" ry="4.14045" fill="#834F12"/>
<path d="M54.9746 104.142C54.9746 104.142 51.2635 78.5767 54.0469 79.675C56.8302 80.7734 65.1803 82.9701 72.6026 82.9701C79.0971 82.9701 90.231 80.5529 92.0861 79.675C93.9412 78.7971 92.0861 104.142 92.0861 104.142C87.3691 107.986 80.0249 109 72.6026 109C65.1803 109 59.6615 106.972 54.9746 104.142Z" fill="url(#paint0_linear_479_5815)"/>
<path d="M79.2954 47.914C73.6833 51.1592 70.9811 57.6495 70.7213 60.8948C70.7213 60.8948 67.8538 64.137 69.1624 85.2344C69.2604 86.8153 73.2676 86.8037 73.0597 85.2344C70.4799 65.7596 71.5008 62.5143 71.5008 62.5143C74.8784 62.5143 84.9078 61.3828 88.6489 60.0838C97.223 57.1065 101.12 39.7998 100.341 42.2338C99.5614 44.6677 86.3106 43.8574 79.2954 47.914Z" fill="url(#paint1_radial_479_5815)"/>
<path d="M52.7663 82.4241C50.0463 81.2835 48.6863 72.7296 51.7463 73.8701C54.8063 75.0106 63.9862 77.2917 72.1462 77.2917C79.2862 77.2917 93.4282 72.7172 94.4726 73.7777C95.5169 74.8381 95.5165 79.0511 93.5661 82.4241C91.6157 85.797 79.2862 86.4159 71.1262 86.4159C62.9662 86.4159 55.4863 83.5646 52.7663 82.4241Z" fill="#D07810"/>
<defs>
<linearGradient id="paint0_linear_479_5815" x1="75.1778" y1="130.301" x2="73.3206" y2="83.6281" gradientUnits="userSpaceOnUse">
<stop offset="0.588806" stop-color="#D07810"/>
<stop offset="0.913907" stop-color="#9A601B"/>
</linearGradient>
<radialGradient id="paint1_radial_479_5815" cx="0" cy="0" r="1" gradientUnits="userSpaceOnUse" gradientTransform="translate(82.4122 51.9672) rotate(-25.3199) scale(18.9706 12.3053)">
<stop stop-color="#007D37"/>
<stop offset="1" stop-color="#86D158"/>
</radialGradient>
</defs>
</svg>
