<svg width="150" height="150" viewBox="0 0 150 150" fill="none" xmlns="http://www.w3.org/2000/svg">
<circle cx="75" cy="75" r="75" fill="#FBF8DB"/>
<ellipse cx="72.8112" cy="79.184" rx="19.4245" ry="3.68396" fill="#834F12"/>
<path d="M82.634 46.803C75.9962 50.5362 72.8001 58.0022 72.4928 61.7354C72.4928 61.7354 68.8029 71.998 70.649 100.934C70.765 102.752 75.5045 102.739 75.2586 100.934C71.5714 73.8645 73.4148 63.5984 73.4148 63.5984C77.4098 63.5984 89.2722 62.2967 93.6971 60.8024C103.838 57.3776 108.448 37.469 107.526 40.2689C106.604 43.0688 90.9314 42.1366 82.634 46.803Z" fill="url(#paint0_radial_479_5816)"/>
<path d="M62.9669 53.4367C68.5336 56.7558 70.2928 62.9275 70.5505 66.2465L71.4717 67.1894V68.1323C69.6294 66.2465 57.6806 65.6893 53.9697 64.3607C45.4649 61.3158 41.3182 45.1382 42.0914 47.6275C42.8645 50.1167 56.0084 49.288 62.9669 53.4367Z" fill="url(#paint1_radial_479_5816)"/>
<path d="M56.4731 106.677C56.4731 106.677 53.1711 83.9308 55.6476 84.9081C58.1241 85.8853 65.5535 87.8398 72.1575 87.8398C77.936 87.8398 87.8424 85.6892 89.493 84.9081C91.1436 84.1269 89.493 106.677 89.493 106.677C85.296 110.098 78.7615 111 72.1575 111C65.5535 111 60.6432 109.195 56.4731 106.677Z" fill="url(#paint2_linear_479_5816)"/>
<path d="M55.1781 87.3541C52.758 86.3393 51.5479 78.7284 54.2705 79.7432C56.9932 80.758 65.161 82.7876 72.4214 82.7876C78.7741 82.7876 91.357 78.7175 92.2862 79.661C93.2155 80.6045 93.2151 84.353 91.4797 87.3541C89.7443 90.3552 78.7741 90.9058 71.5138 90.9058C64.2535 90.9058 57.5982 88.3689 55.1781 87.3541Z" fill="#D07810"/>
<defs>
<radialGradient id="paint0_radial_479_5816" cx="0" cy="0" r="1" gradientUnits="userSpaceOnUse" gradientTransform="translate(86.3196 51.4656) rotate(-24.7094) scale(22.3266 14.2258)">
<stop stop-color="#007D37"/>
<stop offset="1" stop-color="#86D158"/>
</radialGradient>
<radialGradient id="paint1_radial_479_5816" cx="0" cy="0" r="1" gradientUnits="userSpaceOnUse" gradientTransform="translate(59.8757 57.5821) rotate(-153.996) scale(18.9256 12.513)">
<stop stop-color="#007D37"/>
<stop offset="1" stop-color="#86D158"/>
</radialGradient>
<linearGradient id="paint2_linear_479_5816" x1="74.4488" y1="129.952" x2="72.7964" y2="88.4253" gradientUnits="userSpaceOnUse">
<stop offset="0.588806" stop-color="#D07810"/>
<stop offset="0.913907" stop-color="#9A601B"/>
</linearGradient>
</defs>
</svg>
