<svg width="150" height="150" viewBox="0 0 150 150" fill="none" xmlns="http://www.w3.org/2000/svg">
<circle cx="75" cy="75" r="75" fill="white"/>
<ellipse cx="73.4033" cy="99.7065" rx="19.1059" ry="3.62353" fill="#834F12"/>
<path d="M79.1199 69.9319C74.5155 72.5646 73.0605 77.4602 72.8474 80.0929L72.0854 80.8408V81.5888C73.6093 80.0929 83.4922 79.6509 86.5616 78.5971C93.596 76.1818 97.0258 63.3493 96.3863 65.3238C95.7468 67.2984 84.8754 66.641 79.1199 69.9319Z" fill="url(#paint0_radial_479_5817)"/>
<path d="M62.191 68.6481C67.7731 69.7245 70.9972 74.2326 72.1578 76.8578L73.1937 77.3562L73.4624 78.1234C71.3906 77.1266 61.2806 80.1591 57.8115 80.1608C49.8607 80.1646 41.7964 68.2121 43.1498 70.0118C44.5032 71.8116 55.2134 67.3027 62.191 68.6481Z" fill="url(#paint1_radial_479_5817)"/>
<path d="M79.5658 83.5212C75.8041 83.114 72.8711 85.3513 71.6193 86.7943L70.8628 86.9088L70.5417 87.3442C72.0547 87.1154 77.8932 91.0223 80.0999 91.702C85.1573 93.2597 92.6257 87.2333 91.4127 88.1135C90.1996 88.9937 84.268 84.0302 79.5658 83.5212Z" fill="url(#paint2_radial_479_5817)"/>
<path d="M70.999 35.2364C68.0664 40.948 69.827 46.9547 71.3518 49.8153L72.3771 66.738L73.2951 64.9019L72.6177 50.2088C72.6177 48.3728 81.8648 42.4475 84.2834 39.3652C89.8266 32.3008 84.8214 16.805 85.4782 19.2619C86.1349 21.7188 74.6648 28.097 70.999 35.2364Z" fill="url(#paint3_radial_479_5817)"/>
<path d="M83.0652 47.4497C76.5363 51.131 73.3927 58.4933 73.0904 62.1746C73.0904 62.1746 69.461 83.3385 71.2768 111.872C71.3909 113.665 76.0527 113.652 75.8108 111.872C72.1841 85.1792 73.9972 64.0118 73.9972 64.0118C77.9267 64.0118 89.5946 62.7282 93.9469 61.2546C103.922 57.8774 108.456 38.2454 107.549 41.0064C106.642 43.7674 91.2265 42.8481 83.0652 47.4497Z" fill="url(#paint4_radial_479_5817)"/>
<path d="M63.7201 54.4235C69.1956 57.5827 70.9259 63.4574 71.1794 66.6167L72.0854 67.5142V68.4117C70.2734 66.6167 58.5206 66.0863 54.8706 64.8217C46.5053 61.9233 42.4266 46.5243 43.1871 48.8938C43.9476 51.2632 56.8758 50.4744 63.7201 54.4235Z" fill="url(#paint5_radial_479_5817)"/>
<path d="M57.9913 126.748C57.9913 126.748 54.7435 104.375 57.1793 105.336C59.6152 106.297 66.9228 108.22 73.4185 108.22C79.1022 108.22 88.846 106.105 90.4696 105.336C92.0931 104.568 90.4696 126.748 90.4696 126.748C86.3414 130.113 79.9141 131 73.4185 131C66.9228 131 62.0931 129.225 57.9913 126.748Z" fill="url(#paint6_linear_479_5817)"/>
<path d="M56.0596 107.083C53.6792 106.085 52.489 98.5988 55.1669 99.5969C57.8449 100.595 65.8788 102.591 73.02 102.591C79.2686 102.591 91.645 98.588 92.559 99.516C93.473 100.444 93.4727 104.131 91.7657 107.083C90.0588 110.035 79.2686 110.576 72.1274 110.576C64.9861 110.576 58.44 108.081 56.0596 107.083Z" fill="#D07810"/>
<defs>
<radialGradient id="paint0_radial_479_5817" cx="0" cy="0" r="1" gradientUnits="userSpaceOnUse" gradientTransform="translate(81.6767 73.2201) rotate(-25.0715) scale(15.5324 10.0031)">
<stop stop-color="#007D37"/>
<stop offset="0.739583" stop-color="#86D158"/>
</radialGradient>
<radialGradient id="paint1_radial_479_5817" cx="0" cy="0" r="1" gradientUnits="userSpaceOnUse" gradientTransform="translate(60.7981 72.9227) rotate(-173.825) scale(16.6274 10.8348)">
<stop stop-color="#007D37"/>
<stop offset="0.739583" stop-color="#86D158"/>
</radialGradient>
<radialGradient id="paint2_radial_479_5817" cx="0" cy="0" r="1" gradientUnits="userSpaceOnUse" gradientTransform="translate(79.6158 86.513) rotate(10.9168) scale(11.0667 7.21137)">
<stop stop-color="#007D37"/>
<stop offset="0.739583" stop-color="#86D158"/>
</radialGradient>
<radialGradient id="paint3_radial_479_5817" cx="0" cy="0" r="1" gradientUnits="userSpaceOnUse" gradientTransform="translate(75.7767 36.971) rotate(-58.0828) scale(18.7786 12.2367)">
<stop stop-color="#007D37"/>
<stop offset="1" stop-color="#86D158"/>
</radialGradient>
<radialGradient id="paint4_radial_479_5817" cx="0" cy="0" r="1" gradientUnits="userSpaceOnUse" gradientTransform="translate(86.6902 52.0475) rotate(-24.765) scale(21.9701 14.0219)">
<stop stop-color="#007D37"/>
<stop offset="1" stop-color="#86D158"/>
</radialGradient>
<radialGradient id="paint5_radial_479_5817" cx="0" cy="0" r="1" gradientUnits="userSpaceOnUse" gradientTransform="translate(60.6797 58.3693) rotate(-154.729) scale(18.5012 11.984)">
<stop stop-color="#007D37"/>
<stop offset="1" stop-color="#86D158"/>
</radialGradient>
<linearGradient id="paint6_linear_479_5817" x1="75.6722" y1="149.642" x2="74.0469" y2="108.796" gradientUnits="userSpaceOnUse">
<stop offset="0.588806" stop-color="#D07810"/>
<stop offset="0.913907" stop-color="#9A601B"/>
</linearGradient>
</defs>
</svg>
