<svg width="150" height="150" viewBox="0 0 150 150" fill="none" xmlns="http://www.w3.org/2000/svg">
<circle cx="75" cy="75" r="75" fill="#FBF8DB"/>
<ellipse cx="77.2431" cy="87.4478" rx="22.8998" ry="4.1983" fill="#834F12"/>
<path d="M80.2856 102.316C75.9015 71.5757 78.0933 47.1987 78.0933 47.1987L76.9971 45.083C76.9971 45.083 72.6098 69.4559 74.8048 102.316C74.9428 104.381 80.5779 104.366 80.2856 102.316Z" fill="url(#paint0_linear_479_5818)"/>
<path d="M58.6988 118.779C58.6988 118.779 54.7938 92.8572 57.7225 93.9709C60.6513 95.0846 69.4375 97.312 77.2475 97.312C84.0812 97.312 95.7967 94.8611 97.7487 93.9709C99.7008 93.0808 97.7487 118.779 97.7487 118.779C92.7853 122.677 85.0575 123.706 77.2475 123.706C69.4375 123.706 63.6305 121.649 58.6988 118.779Z" fill="url(#paint1_linear_479_5818)"/>
<path d="M56.4785 95.9953C53.6286 94.8389 52.2036 86.1654 55.4098 87.3219C58.6159 88.4783 68.2344 90.7913 76.7842 90.7913C84.2653 90.7913 99.0829 86.1529 100.177 87.2281C101.271 88.3034 101.271 92.5752 99.2274 95.9953C97.1838 99.4155 84.2653 100.043 75.7155 100.043C67.1657 100.043 59.3284 97.1518 56.4785 95.9953Z" fill="#D07810"/>
<path fill-rule="evenodd" clip-rule="evenodd" d="M74.081 71.7998C77.7802 71.7998 81.0377 69.9742 82.9391 67.2056C84.5654 68.1823 86.4853 68.7465 88.5417 68.7465C94.4069 68.7465 99.1615 64.1572 99.1615 58.4961C99.1615 55.3571 97.6997 52.5477 95.3974 50.6674C97.4375 48.7995 98.7097 46.1579 98.7097 43.2295C98.7097 37.5684 93.9551 32.9792 88.0899 32.9792C87.2306 32.9792 86.3952 33.0777 85.595 33.2636C85.3953 29.2196 81.9351 26 77.6958 26C73.3506 26 69.824 29.3824 69.7877 33.5681C69.2766 33.468 68.7476 33.4154 68.2059 33.4154C64.8502 33.4154 61.9827 35.4328 60.8341 38.2795C60.4356 38.2357 60.0304 38.2132 59.6198 38.2132C53.7546 38.2132 49 42.8025 49 48.4636C49 52.1358 51.0005 55.3569 54.007 57.167C54.4558 62.4294 59.0228 66.5651 64.5906 66.5651C64.6659 66.5651 64.7411 66.5644 64.816 66.5629C66.6352 69.6882 70.1026 71.7998 74.081 71.7998Z" fill="url(#paint2_linear_479_5818)"/>
<defs>
<linearGradient id="paint0_linear_479_5818" x1="77.2433" y1="45.083" x2="77.2433" y2="103.859" gradientUnits="userSpaceOnUse">
<stop stop-color="#B86518"/>
<stop offset="1" stop-color="#653509"/>
</linearGradient>
<linearGradient id="paint1_linear_479_5818" x1="79.9572" y1="145.304" x2="78.1424" y2="97.9739" gradientUnits="userSpaceOnUse">
<stop offset="0.588806" stop-color="#D07810"/>
<stop offset="0.913907" stop-color="#9A601B"/>
</linearGradient>
<linearGradient id="paint2_linear_479_5818" x1="77.9219" y1="67.6559" x2="76.8693" y2="36.902" gradientUnits="userSpaceOnUse">
<stop stop-color="#007D37"/>
<stop offset="1" stop-color="#86D158"/>
</linearGradient>
</defs>
</svg>
