<svg width="150" height="150" viewBox="0 0 150 150" fill="none" xmlns="http://www.w3.org/2000/svg">
<circle cx="75" cy="75" r="75" fill="#FBF8DB"/>
<ellipse cx="77.1107" cy="97.6598" rx="17.2674" ry="3.1657" fill="#834F12"/>
<path d="M79.4045 108.871C76.0987 85.6919 77.7514 67.3107 77.7514 67.3107L76.9248 65.7153C76.9248 65.7153 73.6166 84.0936 75.2717 108.871C75.3758 110.429 79.6249 110.417 79.4045 108.871Z" fill="url(#paint0_linear_479_5819)"/>
<path d="M63.1273 121.285C63.1273 121.285 60.1827 101.739 62.3911 102.579C64.5995 103.418 71.2247 105.098 77.1138 105.098C82.2667 105.098 91.1007 103.25 92.5726 102.579C94.0445 101.907 92.5726 121.285 92.5726 121.285C88.83 124.224 83.0029 125 77.1138 125C71.2247 125 66.846 123.449 63.1273 121.285Z" fill="url(#paint1_linear_479_5819)"/>
<path d="M61.4531 104.105C59.3041 103.233 58.2297 96.6927 60.6472 97.5647C63.0648 98.4367 70.3176 100.181 76.7645 100.181C82.4055 100.181 93.5786 96.6832 94.4038 97.494C95.2289 98.3048 95.2286 101.526 93.6876 104.105C92.1466 106.684 82.4055 107.157 75.9586 107.157C69.5117 107.157 63.6021 104.977 61.4531 104.105Z" fill="#D07810"/>
<path fill-rule="evenodd" clip-rule="evenodd" d="M75.096 86.436C79.9774 86.436 84.2759 84.027 86.7849 80.3735C88.931 81.6625 91.4645 82.407 94.1782 82.407C101.918 82.407 108.192 76.3511 108.192 68.8808C108.192 64.7387 106.263 61.0315 103.225 58.5504C105.917 56.0855 107.596 52.5997 107.596 48.7355C107.596 41.2652 101.322 35.2093 93.5821 35.2093C92.4483 35.2093 91.3459 35.3393 90.2902 35.5846C90.0264 30.2483 85.4605 26 79.8665 26C74.1329 26 69.4792 30.4632 69.4313 35.9865C68.7568 35.8543 68.0586 35.7849 67.3437 35.7849C62.9155 35.7849 59.1315 38.4471 57.6159 42.2037C57.09 42.146 56.5554 42.1163 56.0136 42.1163C48.2741 42.1163 42 48.1721 42 55.6424C42 60.4882 44.6399 64.7388 48.6073 67.1274C49.1994 74.0716 55.226 79.5291 62.5732 79.5291C62.6725 79.5291 62.7716 79.5281 62.8704 79.5261C65.2711 83.6499 69.8465 86.436 75.096 86.436Z" fill="url(#paint2_linear_479_5819)"/>
<path d="M62.1454 57.8978C62.1454 59.672 60.9417 61.1103 59.1173 61.1103C57.2929 61.1103 55.814 59.672 55.814 57.8978C55.814 56.1235 57.0176 55.3545 58.842 55.3545C60.6664 55.3545 62.1454 56.1235 62.1454 57.8978Z" fill="#A91212"/>
<path d="M74.808 44.6595C74.808 46.4337 73.6043 47.872 71.7799 47.872C69.9555 47.872 68.4766 46.4337 68.4766 44.6595C68.4766 42.8852 69.6802 42.1162 71.5046 42.1162C73.329 42.1162 74.808 42.8852 74.808 44.6595Z" fill="#A91212"/>
<path d="M83.4417 60.7757C83.4417 62.5499 82.2381 63.9882 80.4137 63.9882C78.5893 63.9882 77.1104 62.5499 77.1104 60.7757C77.1104 59.0014 78.314 58.2324 80.1384 58.2324C81.9628 58.2324 83.4417 59.0014 83.4417 60.7757Z" fill="#A91212"/>
<path d="M93.2269 47.5374C93.2269 49.3116 92.0232 50.75 90.1988 50.75C88.3745 50.75 86.8955 49.3116 86.8955 47.5374C86.8955 45.7632 88.0992 44.9941 89.9236 44.9941C91.7479 44.9941 93.2269 45.7632 93.2269 47.5374Z" fill="#A91212"/>
<path d="M99.558 65.3807C99.558 67.1549 98.3543 68.5932 96.5299 68.5932C94.7055 68.5932 93.2266 67.1549 93.2266 65.3807C93.2266 63.6064 94.4302 62.8374 96.2546 62.8374C98.079 62.8374 99.558 63.6064 99.558 65.3807Z" fill="#A91212"/>
<path d="M77.1107 71.1365C77.1107 72.9108 75.907 74.3491 74.0826 74.3491C72.2583 74.3491 70.7793 72.9108 70.7793 71.1365C70.7793 69.3623 71.983 68.5933 73.8074 68.5933C75.6317 68.5933 77.1107 69.3623 77.1107 71.1365Z" fill="#A91212"/>
<defs>
<linearGradient id="paint0_linear_479_5819" x1="77.1104" y1="65.7153" x2="77.1104" y2="110.035" gradientUnits="userSpaceOnUse">
<stop stop-color="#B86518"/>
<stop offset="1" stop-color="#653509"/>
</linearGradient>
<linearGradient id="paint1_linear_479_5819" x1="79.157" y1="141.286" x2="77.7886" y2="105.597" gradientUnits="userSpaceOnUse">
<stop offset="0.588806" stop-color="#D07810"/>
<stop offset="0.913907" stop-color="#9A601B"/>
</linearGradient>
<linearGradient id="paint2_linear_479_5819" x1="80.1647" y1="80.968" x2="78.7757" y2="40.386" gradientUnits="userSpaceOnUse">
<stop stop-color="#007D37"/>
<stop offset="1" stop-color="#86D158"/>
</linearGradient>
</defs>
</svg>
