<svg width="113" height="142" viewBox="0 0 113 142" fill="none" xmlns="http://www.w3.org/2000/svg">
<path d="M11.8191 3.82793C7.79311 3.69794 6.4511 3.65461 5.00078 6.96627C3.55045 10.2779 5.00167 129.781 5.00124 133.219C5.00081 136.642 6.84091 137.488 9.50324 138.245C12.1656 139.003 101.722 138.851 103.756 138.245C105.791 137.639 107.198 134.505 107.977 131.172C108.757 127.838 106.992 10.2594 107.101 6.90445C107.187 4.22046 103.183 3.41946 101.17 3.35447C72.2811 3.54118 15.8451 3.95793 11.8191 3.82793Z" fill="white"/>
<path d="M15.8015 102.348C14.7799 100.703 15.8016 45.3193 15.8015 17.4069C16.5592 14.7445 21.9705 13.5759 23.3125 13.6193C24.6545 13.6626 89.157 13.0585 91.8193 13.8162C94.4816 14.5738 94.4383 15.9158 95.0443 17.9505C95.6503 19.9851 97.2305 97.589 97.1655 99.602C97.1005 101.615 97.0789 102.286 95.0442 102.892C93.0095 103.498 21.0828 105.206 19.0914 104.47C17.1001 103.734 17.0785 104.405 15.8015 102.348Z" fill="#F3F6FA"/>
<path d="M81.8773 70.8131C78.6574 80.115 68.0334 88.3001 54.1902 88.3001C42.5308 88.3001 35.2444 84.6567 31.2379 76.6416C27.435 69.0339 28.6863 54.4179 33.4225 49.3174C37.2115 45.237 40.9531 50.8961 42.1676 52.5963C43.0176 47.9816 44.4249 33.0691 52.0029 29.2802C59.5808 25.4912 63.6626 38.5093 63.6626 43.124C64.0269 42.3954 67.6688 35.838 71.6763 38.3883C74.9552 40.4748 79.0856 52.3535 76.4139 55.8753C85.8849 47.4964 85.1563 61.3407 81.8773 70.8131Z" fill="#DC6750"/>
<path d="M50.8596 64.3013L49.4023 62.844" stroke="black" stroke-width="1.5" stroke-linecap="round"/>
<path d="M58.1445 62.8444L59.6018 60.6584" stroke="black" stroke-width="1.5" stroke-linecap="round"/>
<path d="M53.7725 68.6736C54.2302 68.2819 55.3419 67.4595 56.1265 67.3028C56.9112 67.1461 58.2845 67.2375 58.873 67.3028" stroke="black" stroke-linecap="round"/>
<path d="M46.262 112.445H47.575V113.953H52.138V112.445H53.438V117.138H46.262V112.445ZM49.382 121.441H50.708V119.205H55.167V118.165H44.533V119.205H49.382V121.441ZM53.659 122.559L53.75 123.495C53.113 123.664 52.554 123.768 51.631 123.768H46.353V120.323H47.666V122.793H51.631C52.554 122.793 53.113 122.689 53.659 122.559ZM47.575 114.928V116.163H52.138V114.928H47.575ZM65.5981 116.683L65.6891 117.632C64.7271 117.84 63.6091 117.944 62.2831 117.944V120.596H66.8721V121.636H56.2381V120.596H60.9571V117.944H57.8891V112.51H59.1891V116.943H62.1141C63.3751 116.943 64.5711 116.878 65.5981 116.683Z" fill="black"/>
</svg>
