<svg width="113" height="142" viewBox="0 0 113 142" fill="none" xmlns="http://www.w3.org/2000/svg">
<path d="M11.8191 3.9815C7.79311 3.85151 6.4511 3.80817 5.00078 7.11983C3.55045 10.4315 5.00167 129.934 5.00124 133.373C5.00081 136.796 6.84091 137.641 9.50324 138.399C12.1656 139.156 101.722 139.005 103.756 138.399C105.791 137.793 107.198 134.659 107.977 131.325C108.757 127.992 106.992 10.413 107.101 7.05801C107.187 4.37402 103.183 3.57303 101.17 3.50803C72.2811 3.69474 15.8451 4.11149 11.8191 3.9815Z" fill="white"/>
<path d="M15.8015 102.502C14.7799 100.857 15.8016 45.4731 15.8015 17.5607C16.5592 14.8983 21.9705 13.7297 23.3125 13.7731C24.6545 13.8164 89.157 13.2123 91.8193 13.97C94.4816 14.7276 94.4383 16.0696 95.0443 18.1043C95.6503 20.1389 97.2305 97.7428 97.1655 99.7558C97.1005 101.769 97.0789 102.44 95.0442 103.046C93.0095 103.652 21.0828 105.36 19.0914 104.624C17.1001 103.888 17.0785 104.559 15.8015 102.502Z" fill="#F3F6FA"/>
<path d="M39.7279 41.1856C46.1928 40.1345 54.6325 46.4822 58.254 50.5745C60.9091 48.5169 66.249 38.8287 81.5103 44.1986C87.0091 46.1333 90.6847 52.0363 87.6961 62.9521C84.7074 73.8678 77.9402 83.2626 60.7176 83.8124C41.9054 84.4129 27.0133 66.8388 26.717 55.6195C26.5253 48.363 31.6469 42.4993 39.7279 41.1856Z" fill="#F2ACCE"/>
<path d="M53.6595 65.7005C53.6595 65.7005 55.5475 67.0934 56.966 67.273C58.2674 67.4377 60.2793 66.7212 60.2793 66.7212" stroke="black" stroke-linecap="round"/>
<circle cx="54.4079" cy="62.2497" r="0.910807" transform="rotate(11.6204 54.4079 62.2497)" fill="black"/>
<ellipse cx="63.0836" cy="65.2944" rx="3.27891" ry="2.91458" transform="rotate(11.6204 63.0836 65.2944)" fill="url(#paint0_radial_379_5958)" fill-opacity="0.42"/>
<ellipse cx="52.9459" cy="63.9538" rx="3.27891" ry="2.91458" transform="rotate(11.6204 52.9459 63.9538)" fill="url(#paint1_radial_379_5958)" fill-opacity="0.42"/>
<path d="M62.2416 61.6244L60.2446 62.8303L62.2959 63.5856" stroke="black" stroke-linecap="round" stroke-linejoin="round"/>
<path d="M55.283 122.754V112.107H53.97V122.754H55.283ZM51.773 112.653V114.72C51.773 117.255 49.511 119.023 46.69 120.18L46.079 119.14C48.64 118.1 50.512 116.631 50.512 114.616V113.628H46.417V112.653H51.773ZM67.8721 118.841H57.2381V117.801H67.8721V118.841ZM60.4621 123.014H64.6481V120.908H60.4621V123.014ZM59.1491 119.933H65.9481V123.989H59.1491V119.933ZM58.4861 112.341H59.6561V113.693H61.0991V112.341H62.2561V116.813H58.4861V112.341ZM59.6561 114.642V115.864H61.0991V114.642H59.6561ZM62.8411 112.341H64.0111V113.693H65.4541V112.341H66.6111V116.813H62.8411V112.341ZM64.0111 114.642V115.864H65.4541V114.642H64.0111Z" fill="black"/>
<defs>
<radialGradient id="paint0_radial_379_5958" cx="0" cy="0" r="1" gradientUnits="userSpaceOnUse" gradientTransform="translate(63.0836 65.2944) rotate(90) scale(2.91458 3.27891)">
<stop stop-color="#E66464"/>
<stop offset="1" stop-color="#E66464" stop-opacity="0"/>
</radialGradient>
<radialGradient id="paint1_radial_379_5958" cx="0" cy="0" r="1" gradientUnits="userSpaceOnUse" gradientTransform="translate(52.9459 63.9538) rotate(90) scale(2.91458 3.27891)">
<stop stop-color="#E66464"/>
<stop offset="1" stop-color="#E66464" stop-opacity="0"/>
</radialGradient>
</defs>
</svg>
