<svg width="112" height="142" viewBox="0 0 112 142" fill="none" xmlns="http://www.w3.org/2000/svg">
<path d="M11.2683 3.73235C7.24233 3.60236 5.90032 3.55903 4.45 6.87069C2.99967 10.1823 4.45089 129.685 4.45046 133.123C4.45003 136.547 6.29013 137.392 8.95246 138.15C11.6148 138.907 101.171 138.756 103.205 138.15C105.24 137.544 106.647 134.409 107.426 131.076C108.206 127.743 106.442 10.1639 106.55 6.80887C106.637 4.12487 102.632 3.32388 100.619 3.25889C71.7304 3.4456 15.2943 3.86235 11.2683 3.73235Z" fill="white"/>
<path d="M16.2507 102.253C15.2291 100.608 16.2508 45.2241 16.2508 17.3117C17.0084 14.6493 22.4197 13.4807 23.7617 13.524C25.1037 13.5674 89.6062 12.9633 92.2685 13.7209C94.9308 14.4786 94.8875 15.8206 95.4935 17.8553C96.0995 19.8899 97.6798 97.4938 97.6148 99.5067C97.5498 101.52 97.5281 102.191 95.4934 102.797C93.4588 103.403 21.532 105.111 19.5407 104.375C17.5493 103.639 17.5277 104.31 16.2507 102.253Z" fill="#F3F6FA"/>
<path d="M30.8516 46.2546C32.8919 41.0083 42.8743 37.9966 47.6105 37.1465C58.1757 37.1468 63.2762 37.5112 70.1983 42.6117C73.7423 45.223 83.314 53.5414 84.4071 59.7345C85.0591 63.4283 86.9418 68.6787 79.3066 77.5863C72.7488 85.2371 62.5476 81.2296 56.7184 83.0512C46.9013 86.119 43.6029 87.4231 36.3165 84.5085C29.03 81.5939 29.9301 69.8732 29.03 64.4707C27.9374 57.9129 28.3014 52.8124 30.8516 46.2546Z" fill="#B3DAC1"/>
<circle cx="50.8888" cy="58.6422" r="0.728646" fill="black"/>
<circle cx="55.9894" cy="57.9132" r="0.728646" fill="black"/>
<path d="M51.0869 62.6246C51.8658 62.6316 52.6321 62.6246 53.4003 62.6246C53.9264 62.6246 54.5297 62.7112 55.0421 62.5831C55.3873 62.4968 55.539 62.4352 55.863 62.4712C55.9817 62.4843 56.4016 62.4753 56.3854 62.4753" stroke="black" stroke-linecap="round"/>
<path d="M51.9632 118.956L52.1582 119.918C50.7282 120.204 48.9212 120.373 46.7502 120.373H44.9562V119.385H46.2952V115.472H45.1122V114.497H51.7682V115.472H50.5722V119.19C51.0532 119.138 51.5212 119.047 51.9632 118.956ZM54.4982 123.636C54.4982 125.131 53.1722 126.197 51.4172 126.197C49.6622 126.197 48.3362 125.131 48.3362 123.636C48.3362 122.141 49.6622 121.075 51.4172 121.075C53.1722 121.075 54.4982 122.141 54.4982 123.636ZM54.6672 120.971H53.3542V118.592H51.5212V117.604H53.3542V116.798H51.5212V115.81H53.3542V114.107H54.6672V120.971ZM53.2892 123.636C53.2892 122.752 52.4832 122.154 51.4172 122.154C50.3512 122.154 49.5452 122.752 49.5452 123.636C49.5452 124.52 50.3512 125.118 51.4172 125.118C52.4832 125.118 53.2892 124.52 53.2892 123.636ZM49.2722 119.32V115.472H47.5952V119.385C48.1932 119.372 48.7522 119.346 49.2722 119.32ZM67.3213 121.322H56.6873V120.282H61.3413V119.112C59.6773 118.917 58.5853 117.994 58.5853 116.668C58.5853 115.173 59.9633 114.172 61.9913 114.172C64.0323 114.172 65.4233 115.173 65.4233 116.668C65.4233 117.981 64.3313 118.904 62.6673 119.099V120.282H67.3213V121.322ZM65.8133 124.559L65.9043 125.495C65.2673 125.664 64.7083 125.768 63.7853 125.768H58.5073V122.388H59.8203V124.793H63.7853C64.7083 124.793 65.2673 124.689 65.8133 124.559ZM59.8073 116.668C59.8073 117.552 60.6523 118.085 61.9913 118.085C63.3563 118.085 64.2013 117.552 64.2013 116.668C64.2013 115.771 63.3563 115.225 61.9913 115.225C60.6523 115.225 59.8073 115.771 59.8073 116.668Z" fill="black"/>
</svg>
