<svg width="112" height="142" viewBox="0 0 112 142" fill="none" xmlns="http://www.w3.org/2000/svg">
<path d="M11.2683 3.57867C7.24233 3.44867 5.90032 3.40534 4.45 6.717C2.99967 10.0287 4.45089 129.531 4.45046 132.97C4.45003 136.393 6.29013 137.238 8.95246 137.996C11.6148 138.754 101.171 138.602 103.205 137.996C105.24 137.39 106.647 134.256 107.426 130.922C108.206 127.589 106.442 10.0102 106.55 6.65518C106.637 3.97119 102.632 3.1702 100.619 3.1052C71.7304 3.29191 15.2943 3.70866 11.2683 3.57867Z" fill="white"/>
<path d="M15.2507 102.099C14.2291 100.454 15.2508 45.0703 15.2508 17.1579C16.0084 14.4955 21.4197 13.3269 22.7617 13.3702C24.1037 13.4136 88.6062 12.8095 91.2685 13.5671C93.9308 14.3248 93.8875 15.6668 94.4935 17.7014C95.0995 19.7361 96.6798 97.3399 96.6148 99.3529C96.5498 101.366 96.5281 102.037 94.4934 102.643C92.4588 103.249 20.532 104.957 18.5407 104.221C16.5493 103.485 16.5277 104.156 15.2507 102.099Z" fill="#F3F6FA"/>
<path d="M43.853 36.2862C44.7378 32.0195 42.0289 27.1757 45.677 26.429C49.3252 25.6823 63.1882 36.8836 71.2141 45.5459C79.2401 54.2082 82.5234 64.0654 80.3345 75.1173C78.1456 86.1693 70.4845 95.7277 54.7974 96.3251C39.1103 96.9225 31.4492 82.8837 31.4492 69.7408C31.4492 56.598 40.5696 52.1175 43.853 36.2862Z" fill="#8AB2E5"/>
<path d="M52.5791 69.7915C52.5791 69.7915 53.3892 68.9939 54.0364 68.6986C54.8237 68.3392 55.1294 68.3342 56.2223 68.3342C57.3153 68.3342 57.7767 68.5563 58.7726 68.6986" stroke="black" stroke-linecap="round"/>
<path d="M50.4386 64.283C50.471 65.345 50.6019 66.5453 50.4611 67.6149C50.4091 68.0101 50.3936 68.4128 50.3936 68.8115C50.3936 69.8116 50.4386 70.8047 50.4386 71.808" stroke="white" stroke-width="0.7" stroke-linecap="round"/>
<path d="M56.5914 64.283C56.4398 67.0423 56.1472 69.8111 56.2392 72.5728C56.2686 73.4565 56.4217 74.3381 56.4652 75.2213C56.514 76.2153 56.6129 77.1469 56.9503 78.1272" stroke="white" stroke-width="0.7" stroke-linecap="round"/>
<circle cx="50.7579" cy="64.3265" r="0.728646" fill="black"/>
<circle cx="56.589" cy="63.5978" r="0.728646" fill="black"/>
<path d="M54.2772 125.729C53.6402 125.898 53.0812 126.002 52.1582 126.002H46.9322V123.077H52.4052V122.128H46.8932V121.166H53.7052V124.039H48.2452V125.04H52.1582C53.0942 125.04 53.6272 124.949 54.1862 124.806L54.2772 125.729ZM51.2222 114.068V114.393C51.2222 114.757 51.1182 115.108 50.9362 115.446L54.8622 117.617L54.2122 118.527L50.2602 116.356C49.3632 117.266 47.9332 118.046 46.4122 118.592L45.8532 117.63C48.1282 116.85 49.9222 115.537 49.9222 114.302V114.003L51.2222 114.068ZM55.6162 120.243H44.9822V119.203H55.6162V120.243ZM58.5983 121.933V125.989H65.3973V121.933H58.5983ZM66.2423 118.423C65.2413 118.631 64.0713 118.735 62.6673 118.735H57.7923V117.747H59.5213V115.381H57.9483V114.406H65.8783V115.381H64.3183V117.708C64.9683 117.669 65.5793 117.604 66.1513 117.487L66.2423 118.423ZM56.6873 120.841V119.801H67.3213V120.841H56.6873ZM59.9113 125.014V122.908H64.0973V125.014H59.9113ZM62.6673 117.747H63.0183V115.381H60.8213V117.747H62.6673Z" fill="black"/>
</svg>
