<svg width="112" height="142" viewBox="0 0 112 142" fill="none" xmlns="http://www.w3.org/2000/svg">
<path d="M11.2683 3.88604C7.24233 3.75605 5.90032 3.71271 4.45 7.02437C2.99967 10.336 4.45089 129.839 4.45046 133.277C4.45003 136.7 6.29013 137.546 8.95246 138.303C11.6148 139.061 101.171 138.909 103.205 138.303C105.24 137.697 106.647 134.563 107.426 131.23C108.206 127.896 106.442 10.3175 106.55 6.96255C106.637 4.27856 102.632 3.47757 100.619 3.41257C71.7304 3.59928 15.2943 4.01603 11.2683 3.88604Z" fill="white"/>
<path d="M14.8015 102.407C13.7799 100.762 14.8016 45.3778 14.8015 17.4654C15.5592 14.803 20.9705 13.6344 22.3125 13.6777C23.6545 13.7211 88.157 13.117 90.8193 13.8746C93.4816 14.6323 93.4383 15.9743 94.0443 18.0089C94.6503 20.0436 96.2305 97.6474 96.1655 99.6604C96.1005 101.673 96.0789 102.344 94.0442 102.95C92.0095 103.556 20.0828 105.264 18.0914 104.528C16.1001 103.792 16.0785 104.463 14.8015 102.407Z" fill="#F3F6FA"/>
<path d="M58.9253 28.1078C54.999 27.5868 47.0516 39.9273 47.0516 39.9273C47.0516 39.9273 30.8868 34.6576 29.3309 39.3224C28.2335 42.6123 34.627 53.273 34.627 53.273C34.627 53.273 24.3141 65.9326 26.1806 70.132C28.0471 74.3313 42.2228 76.7916 42.2228 76.7916C42.2228 76.7916 47.1887 90.1438 51.5808 90.5347C55.9728 90.9257 61.9672 79.4109 61.9672 79.4109C61.9672 79.4109 77.2456 81.3476 80.5013 77.3381C83.757 73.3286 76.7486 58.8608 76.7486 58.8608C76.7486 58.8608 86.4222 50.6812 85.4929 46.7728C84.5637 42.8644 68.3438 41.8589 68.3438 41.8589C68.3438 41.8589 62.8517 28.6288 58.9253 28.1078Z" fill="#FAEA94"/>
<ellipse cx="50.8583" cy="59.9467" rx="3.27891" ry="2.91458" transform="rotate(16.1505 50.8583 59.9467)" fill="url(#paint0_radial_379_5955)"/>
<ellipse cx="59.5712" cy="58.6772" rx="3.27891" ry="2.91458" transform="rotate(16.1505 59.5712 58.6772)" fill="url(#paint1_radial_379_5955)"/>
<path d="M58.0926 59.6431C58.2162 60.6415 57.7331 62.194 55.9458 62.2533C55.147 62.3521 53.8748 61.4653 53.7512 60.4669C53.6277 59.4684 54.975 59.4549 55.7738 59.356C56.5725 59.2571 57.969 58.6446 58.0926 59.6431Z" fill="#C64A4D"/>
<path d="M59.8822 55.4471L57.9757 56.7915L60.0754 57.3995" stroke="black" stroke-linecap="round" stroke-linejoin="round"/>
<path d="M50.4347 56.4702L52.6839 57.089L50.9146 58.3726" stroke="black" stroke-linecap="round" stroke-linejoin="round"/>
<path d="M52.905 117.63C52.905 119.112 51.254 119.593 49.876 119.593C48.498 119.593 46.847 119.112 46.847 117.63C46.847 117.253 46.977 116.928 47.198 116.668H45.677V115.693H54.114V116.668H52.541C52.762 116.928 52.905 117.253 52.905 117.63ZM52.996 124.13C52.996 125.495 51.553 126.288 49.85 126.288C48.147 126.288 46.704 125.495 46.704 124.13C46.704 122.765 48.147 121.972 49.85 121.972C51.553 121.972 52.996 122.765 52.996 124.13ZM55.167 121.296H44.533V120.256H55.167V121.296ZM51.787 124.13C51.787 123.376 50.864 123.051 49.85 123.051C48.836 123.051 47.913 123.376 47.913 124.13C47.913 124.884 48.836 125.209 49.85 125.209C50.864 125.209 51.787 124.884 51.787 124.13ZM51.696 117.63C51.696 116.798 50.539 116.616 49.876 116.616C49.213 116.616 48.056 116.798 48.056 117.63C48.056 118.449 49.148 118.631 49.876 118.631C50.604 118.631 51.696 118.449 51.696 117.63ZM47.497 114.796C48.03 114.939 49.395 115.056 50.188 115.056H52.346V114.094H50.188C49.395 114.094 48.238 113.951 47.705 113.834L47.497 114.796ZM57.9671 114.445H59.2801V115.953H63.8431V114.445H65.1431V119.138H57.9671V114.445ZM61.0871 123.441H62.4131V121.205H66.8721V120.165H56.2381V121.205H61.0871V123.441ZM65.3641 124.559L65.4551 125.495C64.8181 125.664 64.2591 125.768 63.3361 125.768H58.0581V122.323H59.3711V124.793H63.3361C64.2591 124.793 64.8181 124.689 65.3641 124.559ZM59.2801 116.928V118.163H63.8431V116.928H59.2801Z" fill="black"/>
<defs>
<radialGradient id="paint0_radial_379_5955" cx="0" cy="0" r="1" gradientUnits="userSpaceOnUse" gradientTransform="translate(50.8583 59.9467) rotate(90) scale(2.91458 3.27891)">
<stop stop-color="#E66464"/>
<stop offset="1" stop-color="#E66464" stop-opacity="0"/>
</radialGradient>
<radialGradient id="paint1_radial_379_5955" cx="0" cy="0" r="1" gradientUnits="userSpaceOnUse" gradientTransform="translate(59.5712 58.6772) rotate(90) scale(2.91458 3.27891)">
<stop stop-color="#E66464"/>
<stop offset="1" stop-color="#E66464" stop-opacity="0"/>
</radialGradient>
</defs>
</svg>
