<?xml version="1.0" encoding="UTF-8"?>
<svg id="_레이어_2" data-name="레이어 2" xmlns="http://www.w3.org/2000/svg" viewBox="0 0 191.52 95.69">
  <defs>
    <style>
      .cls-1 {
        fill: #4eb26a;
      }

      .cls-2 {
        fill: #54765e;
      }
    </style>
  </defs>
  <g id="_레이어_1-2" data-name="레이어 1">
    <g>
      <g>
        <path class="cls-1" d="m0,8.8C0,4.18,3.84.44,8.58.44s8.58,3.74,8.58,8.36v.66C21.1,4.51,26.3,0,34.98,0c7.9,0,13.88,3.41,17.04,9.35C57.33,3.3,63.65,0,71.89,0c12.75,0,20.43,7.48,20.43,21.66v30.68c0,4.62-3.84,8.36-8.58,8.36s-8.58-3.74-8.58-8.36v-25.18c0-7.92-3.61-11.99-10.04-11.99s-10.38,4.07-10.38,11.99v25.18c0,4.62-3.84,8.36-8.58,8.36s-8.58-3.74-8.58-8.36v-25.18c0-7.92-3.61-11.99-10.04-11.99s-10.38,4.07-10.38,11.99v25.18c0,4.62-3.84,8.36-8.58,8.36S0,56.96,0,52.35V8.8Z"/>
        <path class="cls-1" d="m117.83,53.67l-14.78-41.57c-.34-.99-.79-2.64-.79-4.07,0-3.85,3.16-7.59,8.24-7.59,4.29,0,7.11,2.64,8.35,6.49l9.25,29.91,9.48-29.8c1.24-3.96,4.4-6.71,8.8-6.71h1.02c4.4,0,7.56,2.75,8.8,6.71l9.59,29.91,9.48-30.13c1.13-3.52,3.72-6.38,8.24-6.38,4.74,0,8.01,3.52,8.01,7.7,0,1.1-.34,2.64-.56,3.41l-15.24,42.12c-1.81,5.17-5.3,7.48-9.48,7.48h-.56c-4.18,0-7.67-2.31-9.25-7.15l-9.59-29.69-9.71,29.69c-1.58,4.84-5.08,7.15-9.25,7.15h-.56c-4.17,0-7.67-2.31-9.48-7.48Z"/>
      </g>
      <g>
        <path class="cls-2" d="m2.77,81.16c0-.41.3-.73.71-.73s.74.29.74.73v2.03c.98-1.54,2.35-2.99,5.06-2.99s4.29,1.48,5.12,3.19c.98-1.65,2.62-3.19,5.47-3.19,3.6,0,5.83,2.47,5.83,6.18v8.35c0,.44-.3.73-.71.73s-.74-.29-.74-.73v-8.18c0-3.19-1.7-5.05-4.49-5.05-2.56,0-4.79,1.91-4.79,5.22v8.01c0,.44-.3.73-.71.73s-.74-.29-.74-.73v-8.27c0-3.07-1.73-4.96-4.43-4.96s-4.85,2.32-4.85,5.31v7.92c0,.44-.3.73-.71.73s-.74-.29-.74-.73v-13.58Z"/>
        <path class="cls-2" d="m36.83,75.47c0-.49.39-.87.89-.87s.92.38.92.87v.49c0,.49-.42.87-.92.87s-.89-.38-.89-.87v-.49Zm.18,5.69c0-.41.3-.73.71-.73s.74.29.74.73v13.58c0,.44-.3.73-.71.73s-.74-.29-.74-.73v-13.58Z"/>
        <path class="cls-2" d="m49.94,81.16c0-.41.3-.73.71-.73s.74.29.74.73v2.15c1.01-1.74,2.71-3.1,5.48-3.1,3.84,0,6.07,2.55,6.07,6.09v8.44c0,.44-.3.73-.71.73s-.74-.29-.74-.73v-8.18c0-3.05-1.75-5.05-4.82-5.05s-5.27,2.2-5.27,5.28v7.95c0,.44-.3.73-.71.73s-.74-.29-.74-.73v-13.58Z"/>
        <path class="cls-2" d="m88.02,94.73c0,.44-.3.73-.71.73s-.74-.29-.74-.73v-2.7c-1.31,1.94-3.24,3.65-6.25,3.65-3.66,0-7.38-2.87-7.38-7.69v-.06c0-4.81,3.72-7.74,7.38-7.74,3.04,0,5,1.68,6.25,3.54v-8.96c0-.44.3-.73.71-.73s.74.29.74.73v19.96Zm-13.51-6.85v.06c0,3.89,2.77,6.38,5.95,6.38s6.19-2.58,6.19-6.35v-.06c0-3.8-3.04-6.35-6.19-6.35s-5.95,2.35-5.95,6.32Z"/>
      </g>
      <g>
        <path class="cls-2" d="m109.54,94.91l-4.97-13.31c-.06-.15-.12-.32-.12-.46,0-.38.36-.7.77-.7s.65.26.77.61l4.4,12.5,4.4-12.56c.12-.32.33-.55.71-.55h.06c.42,0,.62.23.74.55l4.4,12.56,4.43-12.56c.09-.29.3-.55.71-.55s.74.32.74.67c0,.17-.06.35-.12.49l-4.97,13.31c-.15.41-.45.64-.8.64h-.06c-.39,0-.65-.23-.8-.67l-4.31-12.1-4.34,12.1c-.15.44-.42.67-.8.67h-.06c-.36,0-.66-.23-.8-.64Z"/>
        <path class="cls-2" d="m136.81,91.05v-.06c0-3.07,2.71-4.81,6.64-4.81,2.11,0,3.57.26,5.03.64v-.64c0-2.99-1.88-4.53-5-4.53-1.67,0-3.06.41-4.31.99-.12.06-.24.09-.33.09-.36,0-.68-.32-.68-.67s.27-.58.42-.64c1.55-.67,3.06-1.1,5-1.1,2.05,0,3.69.55,4.79,1.62,1.01.99,1.55,2.35,1.55,4.18v8.61c0,.44-.3.73-.71.73s-.71-.29-.71-.73v-1.86c-1.04,1.42-2.92,2.81-5.8,2.81s-5.86-1.57-5.86-4.64Zm11.69-1.25v-1.68c-1.28-.32-2.98-.67-5.15-.67-3.21,0-5,1.39-5,3.45v.06c0,2.15,2.08,3.39,4.4,3.39,3.09,0,5.74-1.86,5.74-4.55Z"/>
        <path class="cls-2" d="m162.89,74.78c0-.41.3-.73.71-.73s.74.32.74.73v19.96c0,.44-.3.73-.71.73s-.74-.29-.74-.73v-19.96Z"/>
        <path class="cls-2" d="m177.62,74.78c0-.41.3-.73.71-.73s.74.32.74.73v15.26l9.31-9.4c.15-.15.3-.2.51-.2.39,0,.68.29.68.67,0,.2-.06.32-.24.49l-5.56,5.51,5.95,7.16c.15.17.21.32.21.52,0,.41-.3.67-.71.67-.27,0-.42-.09-.62-.32l-5.83-7.02-3.69,3.63v2.99c0,.44-.3.73-.71.73s-.74-.29-.74-.73v-19.96Z"/>
      </g>
    </g>
  </g>
</svg>